<?xml version="1.0" encoding="UTF-8" standalone="no"?>
<svg xmlns="http://www.w3.org/2000/svg" viewBox="0 0 146 126" aria-label="UNICEF emblem">
  <path fill="#009edb" d="m72.77 1.5c-26.77 0-48.51 21.74-48.51 48.51 0 26.77 21.74 48.51 48.51 48.51 26.77 0 48.51-21.74 48.51-48.51C121.28 23.24 99.54 1.5 72.77 1.5Zm37.55 21.7c-2.36 1.57-5.12 3.15-7.88 4.72a54.94 54.94 0 0 0-5.9-9.05c1.96-1.18 3.93-2.75 5.51-3.93a38.35 38.35 0 0 1 8.27 8.26Zm-20.46-16c3.94 1.57 7.48 3.54 11.02 6.3-1.57 1.57-3.54 2.75-5.51 3.94-2.36-2.76-5.12-5.12-7.87-7.48.79-1.18 1.57-1.97 2.36-2.76Zm3.94 11.02c-2.76 1.57-5.51 2.36-8.27 3.54a63.48 63.48 0 0 0-3.94-7.87c1.57-.79 3.15-1.57 4.33-2.75a50.11 50.11 0 0 1 7.88 7.08ZM87 4.72a18.7 18.7 0 0 0-2.36 2.36c-2.76-1.57-5.12-3.15-8.27-4.33 3.54 0 7.08.79 10.63 1.97Zm-3.15 3.54c-1.18.79-2.36 1.57-3.54 1.97a46.76 46.76 0 0 1-3.94-7.1c2.75 1.18 5.51 2.75 8.27 4.73ZM73.56 3.54c1.96 1.97 3.54 4.33 5.12 7.09-1.58.39-3.15.79-5.12.79Zm0 9.84c1.97 0 4.33-.39 6.3-1.18 1.57 2.36 2.75 5.12 3.93 7.87-3.15.79-6.69 1.18-10.23 1.57ZM71.59 3.54v7.87c-1.57 0-3.15-.39-5.12-.79A72.41 72.41 0 0 0 71.59 3.54Zm-6.69 6.7c-1.18-.39-2.75-1.18-3.54-1.96 2.76-1.58 5.52-3.15 8.27-4.33-1.96 1.97-3.54 3.93-4.73 6.29Zm2.76-7.87a77.87 77.87 0 0 0-8.27 4.33c-.79-.79-1.57-1.57-1.97-2.36 3.15-.79 6.69-1.58 10.24-1.97ZM99.42 87.77c-6.69-3.54-7.08-8.66-6.69-10.23.39-1.96 1.57-1.18 2.36-1.18 4.33 0 8.66-1.18 14.17-7.08 6.3-6.3 8.27-20.08-1.57-29.13-10.24-9.84-21.26-8.27-28.34.79-1.57 1.97-5.12 3.15-7.87 3.15-4.72 0-1.57 3.54-1.57 4.33 0 .79-.79 1.18-1.18 1.18-1.57-.39-.79 1.97-.79 2.36 0 .39-.79 1.18-.79 1.18-1.97 0-1.57 1.57-1.18 2.36 0 .39 0 1.18-.79 1.57-.79.39-1.18.79-1.97 1.18-1.97 0-1.18 1.97-1.57 3.15 0 1.97 1.97 3.54 5.12 5.9 3.15 2.36 3.54 4.72 3.54 6.3 0 1.57.39 4.33.79 5.9.79 1.97.79 5.9-3.54 5.9-5.51.39-14.95 4.33-15.74 4.72-3.15 1.18-7.08 1.57-10.23.79-1.57-1.18-3.15-2.36-4.72-3.93-.79-1.97.39-4.33 1.57-5.9 1.97 1.97 4.33 1.57 5.9 1.57 1.57 0 8.66-1.18 9.84-1.57 1.18-.39 1.57-.39 1.97 0 2.75 1.18 6.69 1.18 8.27-3.94 1.57-5.51-1.97-3.94-2.76-3.54-.39.39-1.18 0-.79-.39.79-1.18-.39-1.18-.79-1.18-1.57 0-3.54 1.57-3.93 1.97-.79.39-1.18.39-1.57.39-1.97-1.18-7.87.39-9.84-2.76 0-.79-1.57-13.38-2.36-15.74 0-.39-.39-1.18.39-1.97 1.57-2.36 5.51 0 7.87 0 2.76 0 3.15-1.18 3.94-1.97.79-.79 1.18-.39 1.57-.79.39-.39 0-.79 0-1.18 0-.39.39 0 .79-.39.39-.39 0-1.18 0-1.57.79-1.18 2.36-.39 1.57-2.75-.79-1.18.39-3.15 1.18-3.93 1.18-1.57 6.3-8.66-2.36-16.14-8.27-7.08-16.93-6.3-22.44-.39-5.51 5.9-2.76 14.57-2.36 16.93.39 2.36-1.18 4.33-3.15 5.12-1.57.79-5.12 3.15-7.48 5.12C24 42.04 35.35 25.5 52.67 18.81c.79.79 1.57 1.97 2.36 2.76-1.97 1.57-6.3 5.12-6.3 5.12s.39 0 1.18.39c.39 0 1.18.39 1.18.39s3.54-3.15 5.51-4.33c1.18 1.18 2.75 1.97 4.33 2.75-.79 1.57-3.15 5.51-3.15 5.51s.4.39.79.39c.4.39.79.39.79.39s2.36-4.33 3.15-5.9c1.96.79 3.93 1.18 5.9 1.18v7.87c-1.18 0-3.94 0-5.12-.39h-.79l.39.79c.39.39.39.79.79 1.18v0 0c.79 0 3.54 0 4.72 0v14.57h1.97v-3.54c3.15 0 5.51-.39 8.27-.79v0l2.75-2.36h-1.57c-3.15.39-5.9.79-8.27.79 0 0-.79 0-1.18 0V41.9c3.54 0 7.48-.39 11.02-1.57.79 2.36 2.75 8.27 2.75 8.27l1.97-.79s-1.97-5.9-2.75-8.27c3.15-.79 5.9-2.36 8.66-3.54 2.36 2.76 4.33 5.9 5.9 9.05-1.57.79-3.93 1.57-3.93 1.57 1.97.39 3.54.79 3.54.79s.79-.39 1.18-.39c0 .39.39 1.18.39 1.18l2.75 1.18-.4-.79s-.79-1.97-1.18-2.36c2.76-1.18 5.51-2.75 8.27-4.72 5.12 7.48 7.48 16.53 7.48 25.59.79 14.96-6.69 28.34-17.71 37.0Z"/>
  <path fill="#009edb" d="m18.33 14.96-.79.79c-2.76 2.36-9.45 9.05-8.27 16.53 0 0 0 .39 0 .39 0 0 .39 1.57.39 1.57l1.57-1.18c3.94-3.54 7.09-9.84 8.27-16.93l.39-1.97Z"/>
  <path fill="#009edb" d="m5.17 27.56-.4.79c-.39 1.18-1.18 3.93-1.57 7.08-.79 4.73-.39 11.81 3.54 16.93 0 0 .39.79.39.79l.79-2.75c.79-5.51-.39-17.72-2.36-23.42l-.79-1.57Z"/>
  <path fill="#009edb" d="M.44 47.24v.79c-.4 4.72 0 16.93 9.84 23.62 0 0 1.18.79 1.18.79v-3.54c0-4.72-5.51-18.5-9.45-23.22l-.39-.79Z"/>
  <path fill="#009edb" d="m2.01 68.88v.79c1.58 7.09 7.87 18.11 18.11 21.65l1.57.39-.39-1.57C19.12 85.02 9.28 72.78 3.19 68.84l-1.18-.79Z"/>
</svg>
