<svg width="32" height="32" viewBox="0 0 32 32" fill="none" xmlns="http://www.w3.org/2000/svg">
  <!-- Background circle -->
  <circle cx="16" cy="16" r="16" fill="#7F56D9"/>
  
  <!-- Left C shape -->
  <path d="M12 10C12 8.89543 12.8954 8 14 8H16C17.1046 8 18 8.89543 18 10V12C18 13.1046 17.1046 14 16 14H14C12.8954 14 12 13.1046 12 12V10Z" fill="white"/>
  <path d="M12 18C12 16.8954 12.8954 16 14 16H16C17.1046 16 18 16.8954 18 18V20C18 21.1046 17.1046 22 16 22H14C12.8954 22 12 21.1046 12 20V18Z" fill="white"/>
  
  <!-- Right C shape -->
  <path d="M14 10C14 8.89543 14.8954 8 16 8H18C19.1046 8 20 8.89543 20 10V12C20 13.1046 19.1046 14 18 14H16C14.8954 14 14 13.1046 14 12V10Z" fill="white"/>
  <path d="M14 18C14 16.8954 14.8954 16 16 16H18C19.1046 16 20 16.8954 20 18V20C20 21.1046 19.1046 22 18 22H16C14.8954 22 14 21.1046 14 20V18Z" fill="white"/>
  
  <!-- Center diamond -->
  <path d="M15 13L16 12L17 13L16 14L15 13Z" fill="white"/>
  <path d="M15 19L16 18L17 19L16 20L15 19Z" fill="white"/>
</svg> 